<svg id="visual" viewBox="0 0 960 540" width="960" height="540" xmlns="http://www.w3.org/2000/svg" xmlns:xlink="http://www.w3.org/1999/xlink" version="1.1"><rect x="0" y="0" width="960" height="540" fill="#FFFFFF"></rect><defs><linearGradient id="grad1_0" x1="43.8%" y1="0%" x2="100%" y2="100%"><stop offset="14.444444444444446%" stop-color="#4facf7" stop-opacity="1"></stop><stop offset="85.55555555555554%" stop-color="#4facf7" stop-opacity="1"></stop></linearGradient></defs><defs><linearGradient id="grad1_1" x1="43.8%" y1="0%" x2="100%" y2="100%"><stop offset="14.444444444444446%" stop-color="#4facf7" stop-opacity="1"></stop><stop offset="85.55555555555554%" stop-color="#88c0f9" stop-opacity="1"></stop></linearGradient></defs><defs><linearGradient id="grad1_2" x1="43.8%" y1="0%" x2="100%" y2="100%"><stop offset="14.444444444444446%" stop-color="#b4d4fc" stop-opacity="1"></stop><stop offset="85.55555555555554%" stop-color="#88c0f9" stop-opacity="1"></stop></linearGradient></defs><defs><linearGradient id="grad1_3" x1="43.8%" y1="0%" x2="100%" y2="100%"><stop offset="14.444444444444446%" stop-color="#b4d4fc" stop-opacity="1"></stop><stop offset="85.55555555555554%" stop-color="#dbe9fd" stop-opacity="1"></stop></linearGradient></defs><defs><linearGradient id="grad1_4" x1="43.8%" y1="0%" x2="100%" y2="100%"><stop offset="14.444444444444446%" stop-color="#ffffff" stop-opacity="1"></stop><stop offset="85.55555555555554%" stop-color="#dbe9fd" stop-opacity="1"></stop></linearGradient></defs><defs><linearGradient id="grad2_0" x1="0%" y1="0%" x2="56.3%" y2="100%"><stop offset="14.444444444444446%" stop-color="#4facf7" stop-opacity="1"></stop><stop offset="85.55555555555554%" stop-color="#4facf7" stop-opacity="1"></stop></linearGradient></defs><defs><linearGradient id="grad2_1" x1="0%" y1="0%" x2="56.3%" y2="100%"><stop offset="14.444444444444446%" stop-color="#88c0f9" stop-opacity="1"></stop><stop offset="85.55555555555554%" stop-color="#4facf7" stop-opacity="1"></stop></linearGradient></defs><defs><linearGradient id="grad2_2" x1="0%" y1="0%" x2="56.3%" y2="100%"><stop offset="14.444444444444446%" stop-color="#88c0f9" stop-opacity="1"></stop><stop offset="85.55555555555554%" stop-color="#b4d4fc" stop-opacity="1"></stop></linearGradient></defs><defs><linearGradient id="grad2_3" x1="0%" y1="0%" x2="56.3%" y2="100%"><stop offset="14.444444444444446%" stop-color="#dbe9fd" stop-opacity="1"></stop><stop offset="85.55555555555554%" stop-color="#b4d4fc" stop-opacity="1"></stop></linearGradient></defs><defs><linearGradient id="grad2_4" x1="0%" y1="0%" x2="56.3%" y2="100%"><stop offset="14.444444444444446%" stop-color="#dbe9fd" stop-opacity="1"></stop><stop offset="85.55555555555554%" stop-color="#ffffff" stop-opacity="1"></stop></linearGradient></defs><g transform="translate(960, 0)"><path d="M0 540C-50.8 520.5 -101.7 501 -157.9 486C-214.1 471 -275.7 460.4 -305.6 420.7C-335.6 380.9 -333.9 312 -369.7 268.6C-405.6 225.2 -478.9 207.4 -513.6 166.9C-548.2 126.4 -544.1 63.2 -540 0L0 0Z" fill="#edf4fe"></path><path d="M0 432C-40.7 416.4 -81.4 400.8 -126.3 388.8C-171.3 376.8 -220.6 368.3 -244.5 336.6C-268.5 304.8 -267.1 249.6 -295.8 214.9C-324.4 180.2 -383.1 165.9 -410.9 133.5C-438.6 101.1 -435.3 50.5 -432 0L0 0Z" fill="#c8dffd"></path><path d="M0 324C-30.5 312.3 -61 300.6 -94.7 291.6C-128.5 282.6 -165.4 276.3 -183.4 252.4C-201.4 228.6 -200.3 187.2 -221.8 161.2C-243.3 135.1 -287.4 124.4 -308.1 100.1C-328.9 75.8 -326.5 37.9 -324 0L0 0Z" fill="#9fcafb"></path><path d="M0 216C-20.3 208.2 -40.7 200.4 -63.2 194.4C-85.6 188.4 -110.3 184.2 -122.3 168.3C-134.2 152.4 -133.6 124.8 -147.9 107.4C-162.2 90.1 -191.6 83 -205.4 66.7C-219.3 50.5 -217.6 25.3 -216 0L0 0Z" fill="#6fb6f8"></path><path d="M0 108C-10.2 104.1 -20.3 100.2 -31.6 97.2C-42.8 94.2 -55.1 92.1 -61.1 84.1C-67.1 76.2 -66.8 62.4 -73.9 53.7C-81.1 45 -95.8 41.5 -102.7 33.4C-109.6 25.3 -108.8 12.6 -108 0L0 0Z" fill="#4facf7"></path></g><g transform="translate(0, 540)"><path d="M0 -540C58.9 -526 117.9 -512 154.5 -475.5C191.2 -439.1 205.5 -380.3 260.4 -358.4C315.2 -336.5 410.6 -351.6 436.9 -317.4C463.2 -283.2 420.4 -199.6 426.1 -138.4C431.8 -77.3 485.9 -38.7 540 0L0 0Z" fill="#edf4fe"></path><path d="M0 -432C47.1 -420.8 94.3 -409.6 123.6 -380.4C152.9 -351.3 164.4 -304.2 208.3 -286.7C252.2 -269.2 328.5 -281.3 349.5 -253.9C370.5 -226.5 336.3 -159.7 340.9 -110.8C345.4 -61.9 388.7 -30.9 432 0L0 0Z" fill="#c8dffd"></path><path d="M0 -324C35.4 -315.6 70.7 -307.2 92.7 -285.3C114.7 -263.5 123.3 -228.2 156.2 -215C189.1 -201.9 246.3 -211 262.1 -190.4C277.9 -169.9 252.2 -119.7 255.6 -83.1C259.1 -46.4 291.5 -23.2 324 0L0 0Z" fill="#9fcafb"></path><path d="M0 -216C23.6 -210.4 47.1 -204.8 61.8 -190.2C76.5 -175.6 82.2 -152.1 104.2 -143.4C126.1 -134.6 164.2 -140.7 174.7 -127C185.3 -113.3 168.2 -79.8 170.4 -55.4C172.7 -30.9 194.4 -15.5 216 0L0 0Z" fill="#6fb6f8"></path><path d="M0 -108C11.8 -105.2 23.6 -102.4 30.9 -95.1C38.2 -87.8 41.1 -76.1 52.1 -71.7C63 -67.3 82.1 -70.3 87.4 -63.5C92.6 -56.6 84.1 -39.9 85.2 -27.7C86.4 -15.5 97.2 -7.7 108 0L0 0Z" fill="#4facf7"></path></g></svg>